<svg xmlns="http://www.w3.org/2000/svg" xmlns:xlink="http://www.w3.org/1999/xlink" width="22.355" height="25.189" viewBox="0 0 22.355 25.189">
  <defs>
    <style>
      .cls-1 {
        fill: url(#linear-gradient);
      }
    </style>
    <linearGradient id="linear-gradient" x1="0.5" x2="0.5" y2="1" gradientUnits="objectBoundingBox">
      <stop offset="0" stop-color="#0E0F09"/>
      <stop offset="1" stop-color="#0E0F09"/>
    </linearGradient>
  </defs>
  <path id="Icon_awesome-trash-alt" data-name="Icon awesome-trash-alt" class="cls-1" d="M1.6,22.827a2.378,2.378,0,0,0,2.4,2.361H18.363a2.378,2.378,0,0,0,2.4-2.361V6.3H1.6ZM15.169,10.233a.8.8,0,0,1,1.6,0v11.02a.8.8,0,0,1-1.6,0Zm-4.79,0a.8.8,0,0,1,1.6,0v11.02a.8.8,0,0,1-1.6,0Zm-4.79,0a.8.8,0,0,1,1.6,0v11.02a.8.8,0,0,1-1.6,0ZM21.556,1.574H15.568L15.1.654A1.2,1.2,0,0,0,14.027,0h-5.7A1.185,1.185,0,0,0,7.255.654l-.469.92H.8a.793.793,0,0,0-.8.787V3.936a.793.793,0,0,0,.8.787H21.556a.793.793,0,0,0,.8-.787V2.361A.793.793,0,0,0,21.556,1.574Z" transform="translate(0 0)"/>
</svg>